<svg width="395" height="283" viewBox="0 0 395 283" fill="none" xmlns="http://www.w3.org/2000/svg">
<rect width="395" height="283" rx="60" fill="white"/>
<g filter="url(#filter0_d_79_33)">
<path fill-rule="evenodd" clip-rule="evenodd" d="M326.86 193.924C330.595 190.153 332.693 185.038 332.693 179.705L332.693 79.6851C332.693 74.3517 330.595 69.2367 326.86 65.4654C323.126 61.6941 318.061 59.5754 312.78 59.5754L86.1953 59.5754C75.2314 59.5754 66.283 68.531 66.283 79.6851L66.283 119.959L53.8261 122.327L53.8261 79.6851C53.8261 61.5421 68.3922 46.9949 86.1953 46.9949L312.78 46.9949C321.365 46.9949 329.598 50.4391 335.669 56.5697C341.739 62.7003 345.15 71.0152 345.15 79.6852L345.15 179.705C345.15 188.375 341.739 196.69 335.669 202.82C329.598 208.951 321.365 212.395 312.78 212.395L112.495 212.395L110.144 199.814L312.78 199.814C318.061 199.814 323.126 197.696 326.86 193.924ZM166.971 224.686C166.971 222.414 168.797 220.572 171.049 220.572L227.723 220.572C229.975 220.572 231.801 222.414 231.8 224.686L231.8 232.089C231.8 234.361 229.975 236.203 227.723 236.203L171.049 236.203C168.797 236.203 166.971 234.361 166.971 232.089L166.971 224.686Z" fill="#D9D9D9"/>
<path fill-rule="evenodd" clip-rule="evenodd" d="M326.86 193.924C330.595 190.153 332.693 185.038 332.693 179.705L332.693 79.6851C332.693 74.3517 330.595 69.2367 326.86 65.4654C323.126 61.6941 318.061 59.5754 312.78 59.5754L86.1953 59.5754C75.2314 59.5754 66.283 68.531 66.283 79.6851L66.283 119.959L53.8261 122.327L53.8261 79.6851C53.8261 61.5421 68.3922 46.9949 86.1953 46.9949L312.78 46.9949C321.365 46.9949 329.598 50.4391 335.669 56.5697C341.739 62.7003 345.15 71.0152 345.15 79.6852L345.15 179.705C345.15 188.375 341.739 196.69 335.669 202.82C329.598 208.951 321.365 212.395 312.78 212.395L112.495 212.395L110.144 199.814L312.78 199.814C318.061 199.814 323.126 197.696 326.86 193.924ZM166.971 224.686C166.971 222.414 168.797 220.572 171.049 220.572L227.723 220.572C229.975 220.572 231.801 222.414 231.8 224.686L231.8 232.089C231.8 234.361 229.975 236.203 227.723 236.203L171.049 236.203C168.797 236.203 166.971 234.361 166.971 232.089L166.971 224.686Z" fill="url(#paint0_linear_79_33)"/>
<path fill-rule="evenodd" clip-rule="evenodd" d="M326.86 193.924C330.595 190.153 332.693 185.038 332.693 179.705L332.693 79.6851C332.693 74.3517 330.595 69.2367 326.86 65.4654C323.126 61.6941 318.061 59.5754 312.78 59.5754L86.1953 59.5754C75.2314 59.5754 66.283 68.531 66.283 79.6851L66.283 119.959L53.8261 122.327L53.8261 79.6851C53.8261 61.5421 68.3922 46.9949 86.1953 46.9949L312.78 46.9949C321.365 46.9949 329.598 50.4391 335.669 56.5697C341.739 62.7003 345.15 71.0152 345.15 79.6852L345.15 179.705C345.15 188.375 341.739 196.69 335.669 202.82C329.598 208.951 321.365 212.395 312.78 212.395L112.495 212.395L110.144 199.814L312.78 199.814C318.061 199.814 323.126 197.696 326.86 193.924ZM166.971 224.686C166.971 222.414 168.797 220.572 171.049 220.572L227.723 220.572C229.975 220.572 231.801 222.414 231.8 224.686L231.8 232.089C231.8 234.361 229.975 236.203 227.723 236.203L171.049 236.203C168.797 236.203 166.971 234.361 166.971 232.089L166.971 224.686Z" stroke="url(#paint1_linear_79_33)" stroke-width="5"/>
</g>
<g filter="url(#filter1_d_79_33)">
<path fill-rule="evenodd" clip-rule="evenodd" d="M57.2969 204.986L52.0732 177.027L78.6872 186.443L57.2969 204.986ZM62.8138 212.84L85.5644 193.117C90.811 188.569 89.212 180.01 82.6842 177.701L54.3776 167.686C47.8142 165.364 41.2714 171.087 42.5474 177.917L48.1033 207.655C49.3794 214.485 57.5386 217.413 62.8138 212.84ZM81.1452 185.977C81.0539 185.484 80.7204 185.037 80.1844 184.847L51.8778 174.832C50.8238 174.459 49.7651 175.357 49.9334 176.459C49.7658 175.358 50.8243 174.46 51.8779 174.833L80.1845 184.848C80.7203 185.037 81.0536 185.484 81.1452 185.977ZM84.2586 191.606L61.5079 211.328C57.4215 214.871 51.0661 212.622 50.0681 207.281L50.068 207.28C51.0659 212.622 57.4214 214.87 61.5078 211.328L84.2584 191.605C86.2356 189.891 86.9641 187.443 86.6135 185.169C86.9645 187.443 86.236 189.891 84.2586 191.606Z" fill="url(#paint2_linear_79_33)"/>
</g>
<g filter="url(#filter2_d_79_33)">
<path fill-rule="evenodd" clip-rule="evenodd" d="M215.178 129.24L183.726 147.559L183.726 110.921L215.178 129.24ZM188.855 157.125L220.839 138.497C227.908 134.379 227.908 124.101 220.839 119.984L188.855 101.355C181.751 97.2172 172.923 102.407 172.923 110.612L172.923 147.869C172.923 156.073 181.751 161.263 188.855 157.125ZM181.726 147.869V147.869C181.726 149.278 183.238 150.159 184.447 149.454L216.431 130.826C217.007 130.49 217.309 129.914 217.336 129.327C217.309 129.914 217.007 130.489 216.431 130.825L184.447 149.454C183.238 150.158 181.726 149.278 181.726 147.869ZM174.923 110.612V110.612C174.923 103.92 182.104 99.7374 187.849 103.083L219.832 121.712C222.705 123.385 224.141 126.313 224.141 129.241C224.141 126.313 222.705 123.385 219.832 121.712L187.849 103.084C182.104 99.7379 174.923 103.92 174.923 110.612Z" fill="url(#paint3_linear_79_33)"/>
</g>
<g filter="url(#filter3_d_79_33)">
<path fill-rule="evenodd" clip-rule="evenodd" d="M75.5665 133.331C77.3878 132.985 79.2736 133.381 80.8091 134.437C82.3451 135.494 83.4044 137.125 83.7497 138.973L102.708 240.445C103.053 242.293 102.655 244.202 101.606 245.75C100.557 247.298 98.9436 248.359 97.1222 248.706L53.1088 257.074C49.3038 257.798 45.6435 255.274 44.9256 251.432L25.9673 149.96C25.622 148.112 26.0201 146.204 27.0693 144.655C28.1182 143.107 29.7316 142.046 31.553 141.7L75.5665 133.331ZM86.2575 126.448C82.6153 123.942 78.1304 122.995 73.7896 123.82L29.7761 132.189C25.4353 133.014 21.5998 135.543 19.1117 139.215C16.624 142.886 15.6868 147.398 16.5017 151.76L35.4599 253.232C37.1487 262.271 45.7973 268.313 54.8856 266.585L98.8991 258.216C103.24 257.391 107.075 254.862 109.564 251.191C112.051 247.52 112.988 243.007 112.174 238.646L93.2153 137.174C92.4004 132.812 89.8992 128.953 86.2575 126.448ZM104.813 242.276C104.719 243.907 104.189 245.498 103.259 246.87C101.912 248.858 99.8365 250.226 97.4895 250.672L53.4761 259.04C48.5677 259.974 43.8781 256.716 42.9608 251.806L24.0025 150.333C23.8658 149.602 23.82 148.862 23.862 148.131C23.8199 148.862 23.8656 149.602 24.0024 150.335L42.9607 251.807C43.878 256.717 48.5676 259.975 53.476 259.042L97.4894 250.673C99.8364 250.227 101.912 248.859 103.259 246.871C104.189 245.499 104.719 243.908 104.813 242.276ZM85.1221 128.098C81.9164 125.892 77.9721 125.061 74.1569 125.786L30.1434 134.155C26.3282 134.88 22.9546 137.103 20.7647 140.335C19.2516 142.568 18.3893 145.156 18.2378 147.81C18.3895 145.156 19.2518 142.569 20.7647 140.336C22.9545 137.105 26.3281 134.882 30.1434 134.156L74.1568 125.788C77.972 125.062 81.9163 125.894 85.122 128.099C88.3277 130.305 90.5321 133.704 91.2504 137.549L110.209 239.021C110.432 240.216 110.506 241.424 110.436 242.619C110.506 241.424 110.432 240.215 110.209 239.019L91.2505 137.547C90.5322 133.703 88.3277 130.304 85.1221 128.098Z" fill="url(#paint4_linear_79_33)"/>
</g>
<defs>
<filter id="filter0_d_79_33" x="41.3271" y="36.4941" width="316.321" height="214.209" filterUnits="userSpaceOnUse" color-interpolation-filters="sRGB">
<feFlood flood-opacity="0" result="BackgroundImageFix"/>
<feColorMatrix in="SourceAlpha" type="matrix" values="0 0 0 0 0 0 0 0 0 0 0 0 0 0 0 0 0 0 127 0" result="hardAlpha"/>
<feOffset dy="2"/>
<feGaussianBlur stdDeviation="5"/>
<feComposite in2="hardAlpha" operator="out"/>
<feColorMatrix type="matrix" values="0 0 0 0 0 0 0 0 0 0 0 0 0 0 0 0 0 0 0.4 0"/>
<feBlend mode="normal" in2="BackgroundImageFix" result="effect1_dropShadow_79_33"/>
<feBlend mode="normal" in="SourceGraphic" in2="effect1_dropShadow_79_33" result="shape"/>
</filter>
<filter id="filter1_d_79_33" x="32.3867" y="159.16" width="66.3115" height="67.8848" filterUnits="userSpaceOnUse" color-interpolation-filters="sRGB">
<feFlood flood-opacity="0" result="BackgroundImageFix"/>
<feColorMatrix in="SourceAlpha" type="matrix" values="0 0 0 0 0 0 0 0 0 0 0 0 0 0 0 0 0 0 127 0" result="hardAlpha"/>
<feOffset dy="2"/>
<feGaussianBlur stdDeviation="5"/>
<feComposite in2="hardAlpha" operator="out"/>
<feColorMatrix type="matrix" values="0 0 0 0 0 0 0 0 0 0 0 0 0 0 0 0 0 0 0.4 0"/>
<feBlend mode="normal" in2="BackgroundImageFix" result="effect1_dropShadow_79_33"/>
<feBlend mode="normal" in="SourceGraphic" in2="effect1_dropShadow_79_33" result="shape"/>
</filter>
<filter id="filter2_d_79_33" x="162.923" y="91.9004" width="73.2178" height="78.6797" filterUnits="userSpaceOnUse" color-interpolation-filters="sRGB">
<feFlood flood-opacity="0" result="BackgroundImageFix"/>
<feColorMatrix in="SourceAlpha" type="matrix" values="0 0 0 0 0 0 0 0 0 0 0 0 0 0 0 0 0 0 127 0" result="hardAlpha"/>
<feOffset dy="2"/>
<feGaussianBlur stdDeviation="5"/>
<feComposite in2="hardAlpha" operator="out"/>
<feColorMatrix type="matrix" values="0 0 0 0 0 0 0 0 0 0 0 0 0 0 0 0 0 0 0.4 0"/>
<feBlend mode="normal" in2="BackgroundImageFix" result="effect1_dropShadow_79_33"/>
<feBlend mode="normal" in="SourceGraphic" in2="effect1_dropShadow_79_33" result="shape"/>
</filter>
<filter id="filter3_d_79_33" x="6.21484" y="115.529" width="116.245" height="163.352" filterUnits="userSpaceOnUse" color-interpolation-filters="sRGB">
<feFlood flood-opacity="0" result="BackgroundImageFix"/>
<feColorMatrix in="SourceAlpha" type="matrix" values="0 0 0 0 0 0 0 0 0 0 0 0 0 0 0 0 0 0 127 0" result="hardAlpha"/>
<feOffset dy="2"/>
<feGaussianBlur stdDeviation="5"/>
<feComposite in2="hardAlpha" operator="out"/>
<feColorMatrix type="matrix" values="0 0 0 0 0 0 0 0 0 0 0 0 0 0 0 0 0 0 0.4 0"/>
<feBlend mode="normal" in2="BackgroundImageFix" result="effect1_dropShadow_79_33"/>
<feBlend mode="normal" in="SourceGraphic" in2="effect1_dropShadow_79_33" result="shape"/>
</filter>
<linearGradient id="paint0_linear_79_33" x1="199.488" y1="46.995" x2="99.6444" y2="240.841" gradientUnits="userSpaceOnUse">
<stop stop-color="#2598C6"/>
<stop offset="1" stop-color="#BCD345"/>
</linearGradient>
<linearGradient id="paint1_linear_79_33" x1="199.488" y1="46.995" x2="99.6444" y2="240.841" gradientUnits="userSpaceOnUse">
<stop stop-color="#2598C6"/>
<stop offset="1" stop-color="#BCD345"/>
</linearGradient>
<linearGradient id="paint2_linear_79_33" x1="64.4723" y1="162.802" x2="65.6451" y2="222.959" gradientUnits="userSpaceOnUse">
<stop stop-color="#088CDE"/>
<stop offset="1" stop-color="#F1E716"/>
</linearGradient>
<linearGradient id="paint3_linear_79_33" x1="202.405" y1="97.3667" x2="189.991" y2="170.38" gradientUnits="userSpaceOnUse">
<stop stop-color="#088CDE"/>
<stop offset="1" stop-color="#F1E716"/>
</linearGradient>
<linearGradient id="paint4_linear_79_33" x1="52.1499" y1="129.97" x2="76.9409" y2="260.355" gradientUnits="userSpaceOnUse">
<stop stop-color="#2598C6"/>
<stop offset="1" stop-color="#BCD345"/>
</linearGradient>
</defs>
</svg>
