<svg width="75" height="50" viewBox="0 0 75 50" fill="none" xmlns="http://www.w3.org/2000/svg">
<g clip-path="url(#clip0_146_248)">
<path fill-rule="evenodd" clip-rule="evenodd" d="M14.6662 19.6761C14.2139 19.3649 13.6574 19.2476 13.1191 19.35L3.02427 21.2694C2.48597 21.3717 2.00998 21.6853 1.70101 22.1413C1.39204 22.5972 1.2754 23.1581 1.37675 23.7005L5.72497 46.9739C5.93537 48.1001 7.01097 48.8473 8.13674 48.6333L18.2316 46.7139C18.7699 46.6115 19.2459 46.2979 19.5548 45.842C19.8638 45.386 19.9804 44.8252 19.8791 44.2827L15.5309 21.0093C15.4295 20.4669 15.1185 19.9873 14.6662 19.6761ZM15.395 18.6007C14.6597 18.0948 13.7551 17.9041 12.88 18.0705L2.78522 19.9899C1.91017 20.1562 1.1364 20.6661 0.634143 21.4072C0.131882 22.1484 -0.057731 23.0602 0.107015 23.942L4.45524 47.2154C4.79689 49.044 6.54464 50.261 8.37579 49.9128L18.4706 47.9934C19.3457 47.827 20.1194 47.3172 20.6217 46.576C21.124 45.8348 21.3136 44.9231 21.1488 44.0413L16.8006 20.7679C16.6359 19.8861 16.1302 19.1065 15.395 18.6007Z" fill="url(#paint0_linear_146_248)"/>
<path fill-rule="evenodd" clip-rule="evenodd" d="M70.8398 33.6981C71.6963 32.8331 72.1774 31.6599 72.1774 30.4367L72.1774 7.49641C72.1774 6.27315 71.6963 5.09999 70.8398 4.23501C69.9833 3.37003 68.8217 2.88409 67.6104 2.88409L15.6414 2.88409C13.1267 2.88409 11.0743 4.93812 11.0743 7.49641L11.0743 16.7334L8.21722 17.2767L8.21722 7.49641C8.21722 3.33515 11.5581 -0.0013453 15.6414 -0.0013455L67.6104 -0.00134184C69.5794 -0.00134023 71.4678 0.788598 72.8601 2.1947C74.2524 3.6008 75.0346 5.50789 75.0346 7.49642L75.0346 30.4367C75.0346 32.4252 74.2524 34.3323 72.8601 35.7384C71.4678 37.1445 69.5794 37.9344 67.6104 37.9344L21.6733 37.9344L21.1342 35.049L67.6104 35.049C68.8217 35.049 69.9833 34.563 70.8398 33.6981ZM34.168 40.7534C34.168 40.2324 34.5867 39.81 35.1031 39.81L48.1019 39.81C48.6184 39.81 49.037 40.2324 49.037 40.7534L49.037 42.4515C49.037 42.9725 48.6184 43.3949 48.1019 43.3949L35.1031 43.3949C34.5867 43.3949 34.168 42.9725 34.168 42.4515L34.168 40.7534Z" fill="#D9D9D9"/>
<path fill-rule="evenodd" clip-rule="evenodd" d="M70.8398 33.6981C71.6963 32.8331 72.1774 31.6599 72.1774 30.4367L72.1774 7.49641C72.1774 6.27315 71.6963 5.09999 70.8398 4.23501C69.9833 3.37003 68.8217 2.88409 67.6104 2.88409L15.6414 2.88409C13.1267 2.88409 11.0743 4.93812 11.0743 7.49641L11.0743 16.7334L8.21722 17.2767L8.21722 7.49641C8.21722 3.33515 11.5581 -0.0013453 15.6414 -0.0013455L67.6104 -0.00134184C69.5794 -0.00134023 71.4678 0.788598 72.8601 2.1947C74.2524 3.6008 75.0346 5.50789 75.0346 7.49642L75.0346 30.4367C75.0346 32.4252 74.2524 34.3323 72.8601 35.7384C71.4678 37.1445 69.5794 37.9344 67.6104 37.9344L21.6733 37.9344L21.1342 35.049L67.6104 35.049C68.8217 35.049 69.9833 34.563 70.8398 33.6981ZM34.168 40.7534C34.168 40.2324 34.5867 39.81 35.1031 39.81L48.1019 39.81C48.6184 39.81 49.037 40.2324 49.037 40.7534L49.037 42.4515C49.037 42.9725 48.6184 43.3949 48.1019 43.3949L35.1031 43.3949C34.5867 43.3949 34.168 42.9725 34.168 42.4515L34.168 40.7534Z" fill="url(#paint1_linear_146_248)"/>
<path fill-rule="evenodd" clip-rule="evenodd" d="M7.77036 29.3191C7.52485 29.2322 7.27821 29.4461 7.3264 29.704L8.60069 36.5245C8.64888 36.7824 8.95575 36.891 9.15307 36.7199L14.3711 32.1964C14.5684 32.0253 14.5082 31.7029 14.2627 31.6161L7.77036 29.3191ZM15.1971 33.166L9.97906 37.6896C9.04182 38.5021 7.58415 37.9864 7.35527 36.7613L6.08098 29.9408C5.85209 28.7157 7.02365 27.7001 8.18978 28.1126L14.6821 30.4096C15.8483 30.8222 16.1343 32.3535 15.1971 33.166Z" fill="url(#paint2_linear_146_248)"/>
<path fill-rule="evenodd" clip-rule="evenodd" d="M38.1757 14.2261C37.8983 14.0645 37.5515 14.2665 37.5515 14.5896L37.5515 23.1347C37.5515 23.4579 37.8983 23.6598 38.1757 23.4983L45.5114 19.2257C45.7888 19.0641 45.7888 18.6602 45.5114 18.4986L38.1757 14.2261ZM46.2916 20.5889L38.9558 24.8614C37.6382 25.6289 35.9912 24.6696 35.9912 23.1347L35.9912 14.5896C35.9912 13.0547 37.6382 12.0954 38.9558 12.8629L46.2916 17.1354C47.6092 17.9029 47.6092 19.8214 46.2916 20.5889Z" fill="url(#paint3_linear_146_248)"/>
</g>
<defs>
<linearGradient id="paint0_linear_146_248" x1="7.83263" y1="19.0302" x2="13.5186" y2="48.935" gradientUnits="userSpaceOnUse">
<stop stop-color="#2598C6"/>
<stop offset="1" stop-color="#BCD345"/>
</linearGradient>
<linearGradient id="paint1_linear_146_248" x1="41.6259" y1="-0.0013332" x2="18.726" y2="44.4587" gradientUnits="userSpaceOnUse">
<stop stop-color="#2598C6"/>
<stop offset="1" stop-color="#BCD345"/>
</linearGradient>
<linearGradient id="paint2_linear_146_248" x1="10.6591" y1="26.5594" x2="10.9281" y2="40.3571" gradientUnits="userSpaceOnUse">
<stop stop-color="#088CDE"/>
<stop offset="1" stop-color="#F1E716"/>
</linearGradient>
<linearGradient id="paint3_linear_146_248" x1="42.2945" y1="11.5517" x2="39.4473" y2="28.2979" gradientUnits="userSpaceOnUse">
<stop stop-color="#088CDE"/>
<stop offset="1" stop-color="#F1E716"/>
</linearGradient>
<clipPath id="clip0_146_248">
<rect width="75" height="50" fill="white"/>
</clipPath>
</defs>
</svg>
